<svg xmlns="http://www.w3.org/2000/svg"  viewBox="0 0 100 100" width="24px" height="24px" baseProfile="basic"><circle cx="50" cy="50" r="36.5" fill="#fce8f0"/><path fill="none" stroke="#231f20" stroke-linecap="round" stroke-linejoin="round" stroke-miterlimit="10" d="M49.69,53 c-2.209,0-4,1.791-4,4v0v35"/><polyline fill="none" stroke="#231f20" stroke-linecap="round" stroke-linejoin="round" stroke-miterlimit="10" points="68.69,53 82.69,53 82.69,88 77.69,88"/><polyline fill="none" stroke="#231f20" stroke-linecap="round" stroke-linejoin="round" stroke-miterlimit="10" points="79.69,88 49.69,88 49.69,53 60.69,53"/><path fill="none" stroke="#231f20" stroke-linecap="round" stroke-linejoin="round" stroke-miterlimit="10" d="M79.69,96h-30 c-2.209,0-4-1.791-4-4v0c0-2.209,1.791-4,4-4h30V96z"/><rect width="18" height="7" x="57.69" y="60" fill="none" stroke="#231f20" stroke-linecap="round" stroke-linejoin="round" stroke-miterlimit="10"/><path fill="none" stroke="#231f20" stroke-linecap="round" stroke-linejoin="round" stroke-miterlimit="10" d="M95.182,27.964 c0,0-4.36,13.793-14.249,23.674c-0.48,0.479-0.934,0.933-1.365,1.362"/><path fill="none" stroke="#231f20" stroke-linecap="round" stroke-linejoin="round" stroke-miterlimit="10" d="M53.186,52.923 c1.289-3.179,3.15-6.951,5.851-11.6c4.337-7.465,4.78-10.724,6.38-15.444"/><path fill="none" stroke="#231f20" stroke-linecap="round" stroke-linejoin="round" stroke-miterlimit="10" d="M79.721,45.523 c0,0-1.781,2.928-7.106,4.241c-3.324,1.076-4.159,2.992-4.65,5.277c-0.91,4.234-7.691,4.473-7.233-2.955 c0.458-7.428,5.4-15.171,5.4-15.171"/><g><line x1="52.648" x2="48.722" y1="47" y2="47" fill="none" stroke="#231f20" stroke-linecap="round" stroke-linejoin="round" stroke-miterlimit="10"/><polyline fill="none" stroke="#231f20" stroke-linecap="round" stroke-linejoin="round" stroke-miterlimit="10" points="19.69,28 19.69,4 52.69,4 52.69,39 47.69,39"/><polyline fill="none" stroke="#231f20" stroke-linecap="round" stroke-linejoin="round" stroke-miterlimit="10" points="36.69,39 49.69,39 49.69,47 38.69,47"/><path fill="none" stroke="#231f20" stroke-linecap="round" stroke-linejoin="round" stroke-miterlimit="10" d="M19.69,4 c-2.209,0-4,1.791-4,4v0v24"/><rect width="18" height="7" x="27.69" y="11" fill="none" stroke="#231f20" stroke-linecap="round" stroke-linejoin="round" stroke-miterlimit="10"/><path fill="none" stroke="#231f20" stroke-linecap="round" stroke-linejoin="round" stroke-miterlimit="10" d="M4.818,46.326 c0.762-0.867,1.553-1.805,2.37-2.818c8.023-9.959,8.768-12.871,14.501-17.241c2.609-1.989,4.754-0.852,5.564,1.47"/><path fill="none" stroke="#231f20" stroke-linecap="round" stroke-linejoin="round" stroke-miterlimit="10" d="M37.552,26.495 c-0.352-4.162-3.867-4.451-5.796-2.767c0,0-7.238,5.713-9.067,9.444"/><path fill="none" stroke="#231f20" stroke-linecap="round" stroke-linejoin="round" stroke-miterlimit="10" d="M28.237,36.167 c0,0,3.43-4.839,8.056-8.69c4.498-3.745,9.882,1.017,5.038,5.61c-4.441,4.211-8.753,12.222-15.612,22.424"/><path fill="none" stroke="#231f20" stroke-linecap="round" stroke-linejoin="round" stroke-miterlimit="10" d="M15.69,75.087 c8.2-6.47,18.529-12.952,22.434-24.448c2.351-6.92-4.399-7.714-6.742-4.093"/></g></svg>